<?xml version="1.0" encoding="UTF-8" standalone="no"?>
<!DOCTYPE svg PUBLIC "-//W3C//DTD SVG 1.1//EN" "http://www.w3.org/Graphics/SVG/1.1/DTD/svg11.dtd">
<svg width="100%" height="100%" viewBox="0 0 1600 700" version="1.1" xmlns="http://www.w3.org/2000/svg" xmlns:xlink="http://www.w3.org/1999/xlink" xml:space="preserve" xmlns:serif="http://www.serif.com/" style="fill-rule:evenodd;clip-rule:evenodd;stroke-linecap:round;stroke-linejoin:round;stroke-miterlimit:1.5;">
    <g transform="matrix(0.779539,0,0,0.458498,3.69311,-4.24726)">
        <rect x="-4.656" y="5.406" width="2052.41" height="1527.11" style="fill:white;"/>
    </g>
    <g transform="matrix(0.78125,0,0,0.457039,-9.75766e-15,-2.01199)">
        <path d="M0,0L0,-3.706L60,-3.706L60,0L1988,0L1988,-3.706L2048,-3.706L2048,1536L0,1536L0,1476L0,60L0,0ZM56.28,60C51.187,60 46.304,63.458 42.703,69.613C39.102,75.768 37.08,84.116 37.08,92.82C37.08,283.99 37.08,1252.01 37.08,1443.18C37.08,1451.88 39.102,1460.23 42.703,1466.39C46.304,1472.54 51.187,1476 56.28,1476C247.172,1476 1801.2,1476 1992.09,1476C1997.18,1476 2002.07,1472.54 2005.67,1466.39C2009.27,1460.23 2011.29,1451.88 2011.29,1443.18C2011.29,1252.01 2011.29,283.99 2011.29,92.82C2011.29,84.116 2009.27,75.768 2005.67,69.613C2002.07,63.458 1997.18,60 1992.09,60C1801.2,60 247.172,60 56.28,60Z" style="fill:rgb(219,222,227);"/>
    </g>
    <g transform="matrix(0.457039,0,0,0.457039,-9.75766e-15,-2.01199)">
        <path d="M0,0L107.047,0C107.047,0 107.047,36.093 107.047,54.166C107.047,59.723 102.542,64.228 96.985,64.228L64.228,64.228L64.228,96.985C64.228,102.542 59.723,107.047 54.166,107.047L0,107.047L0,0Z" style="fill:rgb(78,85,103);"/>
        <g transform="matrix(6.12323e-17,1,-1,6.12323e-17,3500.79,4.81264)">
            <path d="M0,0L107.047,0C107.047,0 107.047,36.093 107.047,54.166C107.047,59.723 102.542,64.228 96.985,64.228L64.228,64.228L64.228,96.985C64.228,102.542 59.723,107.047 54.166,107.047L0,107.047L0,0Z" style="fill:rgb(78,85,103);"/>
        </g>
        <g transform="matrix(-1,1.22465e-16,-1.22465e-16,-1,3500.79,1540.81)">
            <path d="M0,0L107.047,0C107.047,0 107.047,36.093 107.047,54.166C107.047,59.723 102.542,64.228 96.985,64.228L64.228,64.228L64.228,96.985C64.228,102.542 59.723,107.047 54.166,107.047L0,107.047L0,0Z" style="fill:rgb(78,85,103);"/>
        </g>
        <g transform="matrix(-1.83697e-16,-1,1,-1.83697e-16,0,1536)">
            <path d="M0,0L107.047,0C107.047,0 107.047,36.093 107.047,54.166C107.047,59.723 102.542,64.228 96.985,64.228L64.228,64.228L64.228,96.985C64.228,102.542 59.723,107.047 54.166,107.047L0,107.047L0,0Z" style="fill:rgb(78,85,103);"/>
        </g>
    </g>
    <g transform="matrix(1,0,0,1,332.386,0)">
        <g transform="matrix(0.457039,0,0,0.457039,173.883,-13.5016)">
            <g transform="matrix(0.243179,0,0,0.243179,531.456,1368.32)">
                <path d="M922.028,667.185L922.028,505.154C922.088,501.933 924.375,500.384 928.713,500.375L1744.12,500.375L1744.12,671.964L928.713,671.964M928.713,671.964C924.303,672.05 921.959,670.546 922.028,667.185" style="fill:white;stroke:rgb(204,204,204);stroke-width:9px;"/>
            </g>
            <g transform="matrix(0.243179,0,0,0.243179,531.456,1368.32)">
                <path d="M622.903,501.562L622.903,487.79C622.903,486.165 623.693,484.641 625.021,483.704C626.35,482.767 628.051,482.535 629.582,483.081L629.63,483.098L922.028,501.562L922.028,670.776L629.63,689.241L629.582,689.258C628.051,689.804 626.35,689.571 625.021,688.635C623.693,687.698 622.903,686.174 622.903,684.548L622.903,670.776L622.903,584.982L622.903,501.562Z"/>
                <g transform="matrix(1,0,0,1,0,-0.313259)">
                    <path d="M622.903,538.825L622.887,538.825C600.029,538.825 581.499,557.355 581.499,580.213C581.499,584.371 581.499,588.594 581.499,592.752C581.499,615.61 600.029,634.14 622.887,634.14C622.898,634.14 622.903,634.14 622.903,634.14L622.903,538.825Z"/>
                </g>
            </g>
            <g transform="matrix(0.243179,0,0,0.243179,534.168,1368.32)">
                <rect x="1050.32" y="500.375" width="543.2" height="171.592"/>
            </g>
        </g>
        <g transform="matrix(0.457039,-9.30821e-17,9.30821e-17,0.457039,14.661,-13.5016)">
            <g transform="matrix(0.243179,0,0,0.243179,531.456,1368.32)">
                <path d="M922.028,667.185L922.028,505.154C922.088,501.933 924.375,500.384 928.713,500.375L1744.12,500.375L1744.12,671.964L928.713,671.964M928.713,671.964C924.303,672.05 921.959,670.546 922.028,667.185" style="fill:white;stroke:rgb(204,204,204);stroke-width:9px;"/>
            </g>
            <g transform="matrix(0.243179,0,0,0.243179,531.456,1368.32)">
                <path d="M622.903,501.562L622.903,487.79C622.903,486.165 623.693,484.641 625.021,483.704C626.35,482.767 628.051,482.535 629.582,483.081L629.63,483.098L922.028,501.562L922.028,670.776L629.63,689.241L629.582,689.258C628.051,689.804 626.35,689.571 625.021,688.635C623.693,687.698 622.903,686.174 622.903,684.548L622.903,670.776L622.903,584.982L622.903,501.562Z" style="fill:rgb(255,255,0);stroke:rgb(204,204,204);stroke-width:9px;"/>
                <g transform="matrix(1,0,0,1,0,-0.313259)">
                    <path d="M622.903,538.825L622.887,538.825C600.029,538.825 581.499,557.355 581.499,580.213C581.499,584.371 581.499,588.594 581.499,592.752C581.499,615.61 600.029,634.14 622.887,634.14C622.898,634.14 622.903,634.14 622.903,634.14L622.903,538.825Z" style="fill:rgb(255,255,0);stroke:rgb(204,204,204);stroke-width:9px;"/>
                </g>
            </g>
            <g transform="matrix(0.243179,0,0,0.243179,534.168,1368.32)">
                <rect x="1050.32" y="500.375" width="543.2" height="171.592" style="fill:rgb(255,255,0);stroke:rgb(204,204,204);stroke-width:9px;"/>
            </g>
        </g>
        <g transform="matrix(0.692546,0,0,0.206629,-282.245,392.179)">
            <rect x="851.779" y="1423.37" width="461.958" height="66.356" style="fill:rgb(128,128,128);"/>
        </g>
    </g>
</svg>
